<?xml version="1.0" encoding="iso-8859-1"?>
<!-- Uploaded to: SVG Repo, www.svgrepo.com, Generator: SVG Repo Mixer Tools -->
<!DOCTYPE svg PUBLIC "-//W3C//DTD SVG 1.1//EN" "http://www.w3.org/Graphics/SVG/1.1/DTD/svg11.dtd">
<svg fill="#000000" version="1.1" id="Capa_1" xmlns="http://www.w3.org/2000/svg" xmlns:xlink="http://www.w3.org/1999/xlink" 
	 width="800px" height="800px" viewBox="0 0 909.062 909.062"
	 xml:space="preserve">
<g>
	<path d="M454.531,0c-28.995,0-52.5,23.505-52.5,52.5v538.471l-41.747-42.25c-20.378-20.624-53.618-20.824-74.244-0.444
		c-20.625,20.379-20.825,53.62-0.444,74.245l129.911,131.479c9.786,9.904,23.106,15.516,37.03,15.599
		c0.105,0,0.21,0.001,0.314,0.001c13.81,0,27.07-5.441,36.898-15.154l133.271-131.684c20.625-20.379,20.824-53.62,0.445-74.245
		c-20.379-20.624-53.617-20.823-74.244-0.444l-42.191,41.688V52.5C507.031,23.505,483.527,0,454.531,0z"/>
	<path d="M215.72,856.562c0,28.994,23.505,52.5,52.5,52.5h372.621c28.994,0,52.5-23.506,52.5-52.5c0-28.995-23.506-52.5-52.5-52.5
		H268.221C239.225,804.062,215.72,827.565,215.72,856.562z"/>
</g>
</svg>