<?xml version="1.0" encoding="utf-8"?><!-- Uploaded to: SVG Repo, www.svgrepo.com, Generator: SVG Repo Mixer Tools -->
<svg width="800px" height="800px" viewBox="0 0 24 24" fill="none" xmlns="http://www.w3.org/2000/svg">
<path d="M11 16C11 15.0681 11 14.6022 11.1522 14.2346C11.3552 13.7446 11.7446 13.3552 12.2346 13.1522C12.6022 13 13.0681 13 14 13H16.8C17.9201 13 18.4802 13 18.908 12.782C19.2843 12.5903 19.5903 12.2843 19.782 11.908C20 11.4802 20 10.9201 20 9.8V9.2C20 8.07989 20 7.51984 19.782 7.09202C19.5903 6.71569 19.2843 6.40973 18.908 6.21799C18.4802 6 17.9201 6 16.8 6H16M16 6C16 6.93188 16 7.39782 15.8478 7.76537C15.6448 8.25542 15.2554 8.64477 14.7654 8.84776C14.3978 9 13.9319 9 13 9H7C6.06812 9 5.60218 9 5.23463 8.84776C4.74458 8.64477 4.35523 8.25542 4.15224 7.76537C4 7.39782 4 6.93188 4 6C4 5.06812 4 4.60218 4.15224 4.23463C4.35523 3.74458 4.74458 3.35523 5.23463 3.15224C5.60218 3 6.06812 3 7 3H13C13.9319 3 14.3978 3 14.7654 3.15224C15.2554 3.35523 15.6448 3.74458 15.8478 4.23463C16 4.60218 16 5.06812 16 6ZM10.6 21H11.4C11.9601 21 12.2401 21 12.454 20.891C12.6422 20.7951 12.7951 20.6422 12.891 20.454C13 20.2401 13 19.9601 13 19.4V17.6C13 17.0399 13 16.7599 12.891 16.546C12.7951 16.3578 12.6422 16.2049 12.454 16.109C12.2401 16 11.9601 16 11.4 16H10.6C10.0399 16 9.75992 16 9.54601 16.109C9.35785 16.2049 9.20487 16.3578 9.10899 16.546C9 16.7599 9 17.0399 9 17.6V19.4C9 19.9601 9 20.2401 9.10899 20.454C9.20487 20.6422 9.35785 20.7951 9.54601 20.891C9.75992 21 10.0399 21 10.6 21Z" stroke="#000000" stroke-width="2" stroke-linecap="round" stroke-linejoin="round"/>
</svg>