<?xml version="1.0" encoding="utf-8"?><!-- Uploaded to: SVG Repo, www.svgrepo.com, Generator: SVG Repo Mixer Tools -->
<svg width="800px" height="800px" viewBox="0 0 24 24" fill="none" xmlns="http://www.w3.org/2000/svg">
<path d="M21 18V12C21 7.02944 16.9706 3 12 3C7.02944 3 3 7.02944 3 12V18M6.75 21C6.05302 21 5.70453 21 5.41473 20.9424C4.22466 20.7056 3.29436 19.7753 3.05764 18.5853C3 18.2955 3 17.947 3 17.25V15.6C3 15.0399 3 14.7599 3.10899 14.546C3.20487 14.3578 3.35785 14.2049 3.54601 14.109C3.75992 14 4.03995 14 4.6 14H6.4C6.96005 14 7.24008 14 7.45399 14.109C7.64215 14.2049 7.79513 14.3578 7.89101 14.546C8 14.7599 8 15.0399 8 15.6V19.75C8 19.9823 8 20.0985 7.98079 20.1951C7.90188 20.5918 7.59178 20.9019 7.19509 20.9808C7.09849 21 6.98233 21 6.75 21ZM17.25 21C17.0177 21 16.9015 21 16.8049 20.9808C16.4082 20.9019 16.0981 20.5918 16.0192 20.1951C16 20.0985 16 19.9823 16 19.75V15.6C16 15.0399 16 14.7599 16.109 14.546C16.2049 14.3578 16.3578 14.2049 16.546 14.109C16.7599 14 17.0399 14 17.6 14H19.4C19.9601 14 20.2401 14 20.454 14.109C20.6422 14.2049 20.7951 14.3578 20.891 14.546C21 14.7599 21 15.0399 21 15.6V17.25C21 17.947 21 18.2955 20.9424 18.5853C20.7056 19.7753 19.7753 20.7056 18.5853 20.9424C18.2955 21 17.947 21 17.25 21Z" stroke="#000000" stroke-width="2" stroke-linecap="round" stroke-linejoin="round"/>
</svg>